<?xml version="1.0" encoding="UTF-8"?>
<svg version="1.1" xmlns="http://www.w3.org/2000/svg" width="1024" height="1024">
<path d="M0 0 C337.92 0 675.84 0 1024 0 C1024 337.92 1024 675.84 1024 1024 C686.08 1024 348.16 1024 0 1024 C0 686.08 0 348.16 0 0 Z " fill="#000000" transform="translate(0,0)"/>
<path d="M0 0 C51.15 0 102.3 0 155 0 C161.82330692 18.19548511 161.82330692 18.19548511 164.9375 27.3125 C165.71427035 29.57050983 166.4916617 31.82830609 167.26953125 34.0859375 C167.69830566 35.33084961 168.12708008 36.57576172 168.56884766 37.85839844 C171.08401153 45.14651933 173.62941502 52.42415621 176.17056274 59.70324707 C177.12804521 62.44622385 178.0849614 65.18939762 179.04174805 67.93261719 C182.07175766 76.61865427 185.10510013 85.30350221 188.14730835 93.98527527 C189.51956593 97.90206946 190.8901982 101.81943149 192.26068115 105.73684692 C192.91306168 107.60015019 193.56624189 109.46317369 194.22027588 111.32589722 C200.00486658 127.80156763 200.00486658 127.80156763 202.31860352 135.83544922 C203.35246207 139.11964482 204.67530086 142.27403088 205.98193359 145.45751953 C207.7578342 149.89258641 209.27030937 154.41699502 210.8125 158.9375 C211.61265957 161.26583874 212.41348998 163.593947 213.21484375 165.921875 C213.43182922 166.55280563 213.6488147 167.18373627 213.87237549 167.83378601 C216.53537145 175.56966891 219.24052884 183.29081691 221.94049072 191.01385498 C228.55211016 209.92979709 235.10747943 228.86486984 241.64328003 247.80712891 C248.03951302 266.34432217 254.46572772 284.87084918 260.92553711 303.38598633 C264.01172879 312.23769191 267.0785406 321.09222334 270 330 C273.80025046 321.36654162 276.90221504 312.60755172 279.82052612 303.65075684 C281.11088653 299.69300763 282.41746622 295.74064835 283.7265625 291.7890625 C283.99474289 290.97953125 284.26292328 290.17 284.53923035 289.3359375 C287.84672724 279.39559918 291.36160238 269.52860126 294.90258789 259.66943359 C297.43962121 252.58273797 299.82993552 245.47422175 302.0448761 238.2802124 C304.76279321 229.47358617 307.70319319 220.74062292 310.625 212 C310.92725494 211.0941214 311.22950989 210.1882428 311.54092407 209.25491333 C316.88738948 193.23378182 322.33582101 177.24929798 327.87182617 161.29272461 C328.99345021 158.01911643 330.08960111 154.73791226 331.18147278 151.45429993 C334.16809195 142.49911919 337.21755776 133.56473756 340.25 124.625 C340.84675537 122.86541458 340.84675537 122.86541458 341.45556641 121.07028198 C347.19614354 104.15306649 353.01962094 87.26723109 358.93041992 70.40881348 C364.74602022 53.8154307 370.35313449 37.16058256 375.83544922 20.45410156 C377.32963035 15.92679941 378.91377046 11.45129647 380.625 7 C381.05039062 5.88625 381.47578125 4.7725 381.9140625 3.625 C383 1 383 1 384 0 C434.49 0 484.98 0 537 0 C537 161.04 537 322.08 537 488 C501.03 488 465.06 488 428 488 C427.505 323.66 427.505 323.66 427 156 C422.64619275 169.05916048 422.64619275 169.05916048 418.3125 182.125 C415.25030354 191.34999564 412.07012128 200.53455045 408.90139771 209.72332764 C405.80122282 218.71612348 402.74047386 227.71997078 399.75 236.75 C396.58444916 246.30296777 393.29207675 255.80574059 389.94921875 265.29785156 C384.72016532 280.18343885 379.58388536 295.09855897 374.65063477 310.08496094 C373.10126451 314.77605293 371.48867985 319.42287294 369.72802734 324.03857422 C368.38458752 327.65802276 367.2019168 331.33164977 366 335 C364.34335264 340.05622579 362.61817164 345.06483306 360.72802734 350.03857422 C359.49898345 353.34982126 358.4118264 356.70643883 357.3125 360.0625 C353.33858379 372.08403863 349.13752308 384.0259776 344.95898438 395.97753906 C343.92996266 398.922169 342.90202752 401.86717395 341.875 404.8125 C341.53855469 405.77736328 341.20210937 406.74222656 340.85546875 407.73632812 C338.89645197 413.37138227 336.98805701 419.02009898 335.125 424.6875 C332.14727292 433.73665588 328.90959766 442.69079359 325.68554688 451.65454102 C323.00814048 459.11745583 320.40052907 466.59518957 317.9765625 474.14453125 C316.21663976 479.56729318 314.13539811 484.66150472 312 490 C283.62 490 255.24 490 226 490 C218.39158116 469.71088308 211.05421786 449.36832601 203.99462891 428.88378906 C200.18058086 417.82548383 196.2068018 406.83757526 192.125 395.875 C188.67922497 386.61607961 185.33123009 377.33240594 182.11206055 367.99243164 C179.26950201 359.74823233 176.36011425 351.52855239 173.4375 343.3125 C170.47650083 334.98722194 167.52409372 326.6595918 164.625 318.3125 C161.10092506 308.17818447 157.42481889 298.09881372 153.76834106 288.01174927 C149.77162243 276.98046309 145.8439566 265.93067448 142.06689453 254.82177734 C140.17457696 249.28210105 138.17647402 243.79250491 136.09765625 238.3203125 C132.94528599 230.00029227 130.13893418 221.58053349 127.375 213.125 C126.44901757 210.29303707 125.51868518 207.46255343 124.5859375 204.6328125 C124.1842334 203.40449707 123.7825293 202.17618164 123.36865234 200.91064453 C121.72681383 196.21942631 119.84589618 191.61474045 118 187 C115.03 178.09 112.06 169.18 109 160 C108.67 268.24 108.34 376.48 108 488 C72.36 488 36.72 488 0 488 C0 326.96 0 165.92 0 0 Z " fill="#FCFCFC" transform="translate(243,266)"/>
<path d="M0 0 C2.77867692 2.77867692 2.65193902 5.1713292 3 9 C2.67 9.33 2.34 9.66 2 10 C1.89772003 11.69400188 1.86600628 13.39229132 1.8613348 15.08937168 C1.85586036 16.19908252 1.85038591 17.30879336 1.84474558 18.45213181 C1.84376747 19.68654052 1.84278936 20.92094924 1.84178162 22.19276428 C1.83684364 23.49218836 1.83190566 24.79161243 1.82681805 26.130413 C1.81318325 29.75385092 1.80580322 33.37727943 1.79939139 37.00073636 C1.79141079 40.90192536 1.77770502 44.80309458 1.76467896 48.70426941 C1.74288287 55.46885118 1.72474989 62.23343491 1.70907402 68.99803352 C1.68640384 78.77862156 1.65825711 88.55918773 1.62875474 98.33975726 C1.58104378 114.20639429 1.53778913 130.07304024 1.49731445 145.93969727 C1.45797733 161.35669652 1.41655541 176.77368783 1.37231445 192.19067383 C1.36959018 193.1402757 1.36686591 194.08987757 1.36405908 195.06825525 C1.3503799 199.83191938 1.33665957 204.59558338 1.32291877 209.35924733 C1.20889897 248.90614839 1.10210182 288.45306648 1 328 C0.67 328 0.34 328 0 328 C0 219.76 0 111.52 0 0 Z " fill="#181818" transform="translate(351,424)"/>
<path d="M0 0 C0.66 0 1.32 0 2 0 C1.80664062 0.64066406 1.61328125 1.28132812 1.4140625 1.94140625 C-0.0940748 6.95110985 -1.57717786 11.96539857 -3 17 C-5.10852713 13.52713178 -5.10852713 13.52713178 -4.5625 10.875 C-4.376875 10.25625 -4.19125 9.6375 -4 9 C-4.33 8.34 -4.66 7.68 -5 7 C-4.34 6.01 -3.68 5.02 -3 4 C-2.67 4.33 -2.34 4.66 -2 5 C-1.34 3.35 -0.68 1.7 0 0 Z " fill="#DFDFDF" transform="translate(622,555)"/>
<path d="M0 0 C0.99 0 1.98 0 3 0 C3.33 1.98 3.66 3.96 4 6 C4.66 6 5.32 6 6 6 C5.67 8.31 5.34 10.62 5 13 C3.49439503 10.14589666 2.36783204 7.31875358 1.375 4.25 C0.98441406 3.05117188 0.98441406 3.05117188 0.5859375 1.828125 C0.39257812 1.22484375 0.19921875 0.6215625 0 0 Z " fill="#E0E0E0" transform="translate(362,454)"/>
<path d="M0 0 C1.13643966 3.40931897 0.86747764 4.00335456 -0.4375 7.1875 C-0.72496094 7.90292969 -1.01242187 8.61835937 -1.30859375 9.35546875 C-1.53675781 9.89816406 -1.76492188 10.44085937 -2 11 C-2.99 10.67 -3.98 10.34 -5 10 C-4.855625 9.443125 -4.71125 8.88625 -4.5625 8.3125 C-3.97230872 5.88615805 -3.476571 3.45093655 -3 1 C-2.01 0.67 -1.02 0.34 0 0 Z " fill="#D9D9D9" transform="translate(638,511)"/>
<path d="M0 0 C0.33 0.99 0.66 1.98 1 3 C1.66 3.33 2.32 3.66 3 4 C1.68 5.65 0.36 7.3 -1 9 C-0.67 9.66 -0.34 10.32 0 11 C-1.98 11.99 -1.98 11.99 -4 13 C-3.52140759 11.39566191 -3.04210442 9.79153584 -2.5625 8.1875 C-2.29566406 7.29417969 -2.02882813 6.40085937 -1.75390625 5.48046875 C-1.19612127 3.64526945 -0.60655425 1.81966274 0 0 Z " fill="#CCCCCC" transform="translate(595,357)"/>
<path d="M0 0 C0.99 0 1.98 0 3 0 C2.25749403 4.08378283 1.17076699 8.01939223 0 12 C-0.33 12 -0.66 12 -1 12 C-0.67 9.03 -0.34 6.06 0 3 C-0.66 2.67 -1.32 2.34 -2 2 C-1.34 2 -0.68 2 0 2 C0 1.34 0 0.68 0 0 Z " fill="#D7D7D7" transform="translate(626,540)"/>
<path d="M0 0 C0.33 0 0.66 0 1 0 C1.29296875 6.0546875 1.29296875 6.0546875 1 8 C0.01 8.66 -0.98 9.32 -2 10 C-3 8 -3 8 -2.44140625 6.0546875 C-2.15136719 5.33539063 -1.86132812 4.61609375 -1.5625 3.875 C-1.27503906 3.15054687 -0.98757813 2.42609375 -0.69140625 1.6796875 C-0.46324219 1.12539063 -0.23507812 0.57109375 0 0 Z " fill="#0C0C0C" transform="translate(669,424)"/>
<path d="M0 0 C2.12508244 3.18762365 2.5020163 5.26512223 3 9 C2.34 9 1.68 9 1 9 C1 8.34 1 7.68 1 7 C0.34 7 -0.32 7 -1 7 C-1.04254356 5.00045254 -1.04080783 2.99958364 -1 1 C-0.67 0.67 -0.34 0.34 0 0 Z " fill="#DBDBDB" transform="translate(417,322)"/>
<path d="M0 0 C0.66 0 1.32 0 2 0 C1.34 2.64 0.68 5.28 0 8 C-0.99 7.01 -1.98 6.02 -3 5 C-1.125 1.125 -1.125 1.125 0 0 Z " fill="#DFDFDF" transform="translate(563,726)"/>
<path d="M0 0 C2.45823172 3.68734758 3.01242616 6.69699971 4 11 C3.34 10.67 2.68 10.34 2 10 C2 9.01 2 8.02 2 7 C1.34 7 0.68 7 0 7 C-0.66 5.35 -1.32 3.7 -2 2 C-1.34 1.34 -0.68 0.68 0 0 Z " fill="#C4C4C4" transform="translate(486,520)"/>
<path d="M0 0 C0.33 0 0.66 0 1 0 C1.25 3.25 1.25 3.25 1 7 C-0.32 8.32 -1.64 9.64 -3 11 C-2.01 7.37 -1.02 3.74 0 0 Z " fill="#C3C3C3" transform="translate(526,560)"/>
<path d="M0 0 C2.45823172 3.68734758 3.01242616 6.69699971 4 11 C2.68 10.34 1.36 9.68 0 9 C0 6.03 0 3.06 0 0 Z " fill="#B5B5B5" transform="translate(459,442)"/>
</svg>
